if (_typeface_js && _typeface_js.loadFace) _typeface_js.loadFace({"glyphs":{"S":{"x_min":-7,"x_max":783.265625,"ha":776,"o":"m 783 1 l -7 1 l -7 239 l 26 239 l 26 370 q 95 365 69 370 q 129 365 112 361 q 94 479 94 431 q 175 640 94 565 q 368 716 256 714 l 368 826 l 417 826 q 419 724 415 781 q 605 637 533 702 q 682 479 682 567 q 670 424 682 463 q 647 365 658 384 q 748 358 679 356 q 747 251 744 262 q 783 239 751 236 l 783 1 "},"K":{"x_min":-5,"x_max":700.5625,"ha":694,"o":"m 700 -1 l -5 -1 l -5 239 l 43 239 l 43 473 q 11 481 38 481 q 108 650 43 540 l 204 495 l 499 495 l 595 650 q 692 480 654 555 l 660 480 l 660 245 q 700 239 665 239 l 700 -1 "},"d":{"x_min":-5.5625,"x_max":1013.890625,"ha":1008,"o":"m 1013 1 l -5 1 l -5 238 q 36 245 20 238 l 36 443 q 70 450 62 443 l 70 706 q 95 713 88 706 l 95 937 l 129 937 l 129 825 q 154 818 136 818 q 161 683 154 718 q 275 738 202 711 q 394 791 354 769 l 394 1090 l 426 1090 l 426 1037 q 451 1030 434 1030 q 459 963 450 994 l 556 970 l 556 1030 q 581 1038 573 1030 l 581 1090 l 613 1090 l 613 791 q 734 744 645 773 q 848 683 804 722 q 854 818 856 722 q 880 825 872 818 l 880 937 l 912 937 l 912 713 q 937 706 919 706 l 937 450 q 972 443 945 443 l 972 245 q 1013 238 980 236 l 1013 1 m 852 573 l 852 620 l 800 673 l 752 673 l 752 573 l 852 573 m 572 676 q 522 716 561 697 l 522 676 l 572 676 m 597 565 l 597 638 l 522 638 l 522 565 l 597 565 m 484 675 l 484 716 q 436 686 448 698 l 484 675 m 572 518 l 523 529 l 523 487 q 572 518 559 505 m 486 565 l 486 638 l 411 638 l 411 565 l 486 565 m 486 487 l 486 527 l 436 527 q 486 487 447 505 m 255 573 l 255 673 l 208 673 l 155 620 l 155 573 l 255 573 "},"Y":{"x_min":-8,"x_max":286,"ha":278,"o":"m 286 1 l -8 1 l -8 239 l 41 239 l 41 383 l 75 383 q 84 454 87 403 l 198 454 l 205 391 q 224 381 210 384 q 239 377 238 379 q 241 316 243 363 q 241 251 239 262 q 286 239 257 239 l 286 1 "},"E":{"x_min":-5,"x_max":810.28125,"ha":804,"o":"m 810 0 l -5 0 l -5 238 l 36 238 l 36 354 l 160 965 l 272 318 l 768 318 l 768 245 q 810 238 775 238 l 810 0 "},"y":{"x_min":-7,"x_max":410,"ha":403,"o":"m 410 -4 l -7 -4 l -7 238 q 5 238 0 238 q 63 292 31 238 q 116 374 109 367 l 286 374 q 333 292 309 333 q 397 238 365 238 q 410 238 403 238 l 410 -4 "},"g":{"x_min":-7,"x_max":663.828125,"ha":657,"o":"m 663 -4 l -7 -4 l -7 240 q 77 248 40 237 l 77 439 q 44 446 70 446 l 44 576 q 18 584 34 584 l 98 719 q 170 576 142 644 q 157 584 162 584 q 152 573 153 584 l 152 487 q 164 480 156 480 q 292 633 206 531 l 363 633 q 490 480 423 565 q 503 488 503 469 l 503 567 q 477 576 495 576 q 558 719 505 626 q 630 584 590 669 q 618 593 623 593 q 614 583 614 593 l 614 447 q 579 440 586 447 l 579 240 l 663 240 l 663 -4 "},"e":{"x_min":-4,"x_max":300,"ha":296,"o":"m 300 -3 l -4 -3 l -4 239 l 23 239 l 143 360 q 223 277 148 355 q 300 239 269 232 l 300 -3 "},"J":{"x_min":-4,"x_max":240,"ha":236,"o":"m 240 0 l -4 0 l -4 238 l 29 238 l 29 469 l 207 469 l 207 244 q 240 238 213 238 l 240 0 "},"|":{"x_min":0,"x_max":0,"ha":1389},"^":{"x_min":0,"x_max":0,"ha":1378},"q":{"x_min":-4,"x_max":1201.5625,"ha":1197,"o":"m 1201 0 l -4 0 l -4 240 q 52 248 39 237 l 52 786 q 25 794 44 794 l 25 868 q 71 875 57 868 q 42 940 42 901 q 90 1027 42 991 l 90 1096 l 155 1096 q 156 1020 153 1027 q 192 991 174 1015 q 210 937 210 968 q 185 873 210 904 q 240 868 200 865 l 240 794 q 210 786 219 794 l 221 402 q 603 505 368 501 q 617 595 606 538 q 626 684 626 637 q 636 686 628 690 q 647 687 644 681 q 655 594 644 643 q 669 515 667 540 q 848 479 758 497 q 1029 406 963 452 q 1143 240 1116 347 l 1201 240 l 1201 0 "},"b":{"x_min":-5,"x_max":282,"ha":276,"o":"m 282 1 l -5 1 l -5 239 q 88 245 44 234 q 93 486 88 286 q 99 774 99 687 q 99 869 99 840 q 113 877 102 869 l 113 898 q 78 902 92 904 q 63 898 56 898 q 72 922 63 906 q 122 929 111 919 q 106 941 122 941 q 117 960 106 947 q 135 973 129 973 q 156 962 140 972 q 151 950 156 959 q 146 930 146 940 l 167 930 q 195 990 176 951 q 196 944 195 976 q 197 898 197 906 q 175 915 190 898 q 156 880 165 916 q 179 870 162 870 q 164 840 179 855 q 188 240 164 558 l 282 239 l 282 1 "},"D":{"x_min":-8,"x_max":389,"ha":381,"o":"m 389 0 l -8 0 l -8 235 l 117 235 l 117 716 q 93 723 111 723 q 42 843 103 818 l 42 933 l 75 933 l 75 1027 l 127 1027 q 170 1096 133 1038 l 209 1096 q 251 1027 222 1075 l 304 1027 l 304 940 q 339 933 312 933 l 339 842 q 300 808 325 835 q 287 723 279 774 q 263 716 269 723 l 263 238 l 389 238 l 389 0 "},"z":{"x_min":-5,"x_max":663.0625,"ha":657,"o":"m 663 0 l -5 0 l -5 238 l 39 243 l 39 786 l 79 786 l 79 1025 l 114 1025 l 114 1229 l 154 1229 q 154 1381 164 1300 l 190 1381 q 190 1293 190 1276 q 222 1293 197 1300 q 227 1429 223 1334 q 258 1449 249 1438 q 300 1516 279 1483 q 303 1611 304 1605 l 343 1611 q 346 1515 338 1586 q 391 1448 378 1462 q 419 1427 395 1445 q 421 1287 417 1394 q 455 1291 435 1287 q 461 1383 452 1323 l 489 1381 l 489 1236 q 531 1229 497 1226 q 531 1029 526 1166 q 565 1023 543 1029 l 565 793 q 607 786 572 786 l 607 243 l 663 238 l 663 0 "},"w":{"x_min":-6,"x_max":619,"ha":614,"o":"m 619 1 l -3 1 l -6 238 q 19 242 0 241 q 44 256 32 242 q 174 473 91 310 q 294 690 266 651 q 428 477 331 644 q 569 256 528 306 q 592 238 584 236 q 614 238 607 241 l 619 1 "},"\\":{"x_min":0,"x_max":0,"ha":1378},"Q":{"x_min":-7,"x_max":443,"ha":436,"o":"m 443 -1 l -7 -1 l -7 239 l 26 239 l 26 853 l 93 853 q 101 776 90 811 l 122 776 q 129 853 129 800 l 196 853 q 204 776 191 811 l 225 776 q 232 853 232 800 l 299 853 q 305 776 294 811 l 326 776 q 335 853 335 800 l 400 853 l 400 245 q 443 239 408 239 l 443 -1 m 281 641 l 281 709 l 248 709 l 248 641 l 281 641 m 179 641 l 179 709 l 147 709 l 147 641 l 179 641 "},"M":{"x_min":-5,"x_max":886.671875,"ha":881,"o":"m 886 -3 l -5 -3 l -5 239 l 28 239 l 28 717 l 143 717 l 143 334 q 311 458 193 416 q 425 494 349 468 q 420 630 431 568 l 461 630 q 457 563 461 612 q 453 493 453 515 q 589 445 521 469 q 739 334 686 405 q 739 717 743 384 l 853 717 l 853 245 q 886 239 860 239 l 886 -3 "},"C":{"x_min":-5,"x_max":931.125,"ha":925,"o":"m 931 -3 l -5 -3 l -5 239 l 63 239 l 63 836 l 95 836 l 95 761 l 251 761 q 259 836 261 786 l 296 836 l 296 479 l 458 743 l 631 479 l 631 836 l 666 836 l 666 761 l 823 761 q 830 826 825 790 q 860 826 847 830 q 863 836 863 826 l 863 247 q 931 239 872 239 l 931 -3 m 523 466 q 510 502 523 483 q 463 530 493 530 q 421 510 440 530 q 403 466 403 490 q 414 430 403 450 q 463 403 430 403 q 504 422 486 403 q 523 466 523 441 "},"[":{"x_min":0,"x_max":0,"ha":1378},"L":{"x_min":-7,"x_max":596,"ha":589,"o":"m 596 -6 l -7 -6 l -7 238 l 42 238 l 42 429 l 138 429 q 147 523 147 454 l 223 523 q 232 608 236 554 l 365 608 l 365 529 q 451 522 396 516 l 451 429 l 554 429 l 554 244 q 596 238 561 238 l 596 -6 "}," ":{"x_min":0,"x_max":0,"ha":775},"X":{"x_min":-4,"x_max":716.84375,"ha":713,"o":"m 716 1 l -4 1 l -4 239 l 79 239 l 79 703 q 20 858 20 751 q 64 997 20 936 q 203 1067 117 1067 q 338 1000 284 1067 q 387 858 387 939 q 374 780 387 848 q 354 750 374 773 q 335 714 335 726 l 335 498 l 683 498 l 683 245 q 716 239 691 239 l 716 1 "},"P":{"x_min":-7,"x_max":534.65625,"ha":528,"o":"m 534 -6 l -7 -6 l -7 240 l 24 240 l 24 512 l 129 512 q 137 588 137 538 q 149 587 144 587 q 205 638 174 587 q 259 726 254 719 q 311 640 266 719 q 374 587 341 587 q 390 588 381 587 l 390 516 q 501 516 448 506 l 501 246 q 534 240 509 240 l 534 -6 "},"_":{"x_min":0,"x_max":0,"ha":1378},"T":{"x_min":-5,"x_max":214,"ha":208,"o":"m 214 0 l -5 0 l -5 238 l 37 238 l 37 941 q 39 951 37 950 q 45 950 39 951 q 53 951 50 948 q 12 1011 12 973 q 59 1081 12 1044 q 89 1168 66 1136 q 127 1149 114 1168 q 141 1081 132 1127 q 173 1050 156 1066 q 190 1010 190 1034 q 181 978 190 998 q 147 949 168 952 q 173 945 150 945 l 173 244 q 214 238 179 238 l 214 0 "},"a":{"x_min":-4,"x_max":332,"ha":328,"o":"m 332 -4 l -4 -4 l -4 239 q 12 239 8 237 q 53 245 23 243 q 74 329 67 257 q 81 437 76 383 q 99 812 85 560 q 122 843 99 822 q 158 875 154 869 q 173 865 166 872 q 227 813 193 844 q 237 736 231 787 q 250 259 237 577 q 332 239 287 236 l 332 -4 "},"=":{"x_min":0,"x_max":0,"ha":1378},"N":{"x_min":-7,"x_max":324,"ha":317,"o":"m 324 -3 l -7 -3 l -7 239 l 35 239 l 35 700 q 47 700 40 700 q 104 751 73 700 q 158 838 148 827 q 209 751 165 829 q 273 700 240 700 q 289 700 282 700 l 289 247 q 324 239 297 239 l 324 -3 "},"j":{"x_min":-4,"x_max":330,"ha":325,"o":"m 330 -1 l -4 -1 l -4 249 l 29 249 l 61 249 l 61 959 q 29 966 53 966 l 29 1288 l 70 1288 q 78 1211 70 1233 l 107 1218 l 107 1288 l 148 1288 q 154 1211 143 1244 l 183 1218 l 183 1288 l 224 1288 q 230 1211 222 1261 l 259 1218 l 259 1288 l 300 1288 l 300 965 q 264 958 271 965 l 264 239 l 330 239 l 330 -1 m 264 1036 l 264 1144 q 254 1156 264 1156 q 240 1144 240 1156 l 240 1036 q 254 1023 240 1023 q 264 1036 264 1023 m 91 1033 l 91 1141 q 80 1154 91 1154 q 69 1141 69 1154 l 69 1033 q 80 1020 69 1020 q 91 1033 91 1020 "},"Z":{"x_min":-3,"x_max":330,"ha":328,"o":"m 330 0 l -3 0 l -3 238 l 46 238 l 46 494 l 176 494 q 176 638 180 598 l 290 638 l 290 246 q 330 238 299 238 l 330 0 "},"u":{"x_min":-5,"x_max":359,"ha":353,"o":"m 359 0 l -5 0 l -5 238 l 52 238 l 52 902 l 19 915 l 19 1372 l 45 1372 l 45 1312 l 62 1312 l 62 1204 l 95 1204 l 95 1312 l 120 1312 l 120 1204 l 155 1204 l 155 1312 l 196 1312 l 196 1204 l 232 1204 l 233 1312 l 258 1312 l 258 1204 l 292 1204 l 292 1312 l 307 1312 l 309 1372 l 333 1372 l 333 913 q 300 896 321 909 l 300 244 q 359 238 321 236 l 359 0 m 249 1038 q 227 1089 249 1063 q 177 1116 206 1116 q 125 1090 146 1116 q 105 1038 105 1064 q 125 988 105 1015 q 177 962 146 962 q 223 983 197 962 q 249 1038 249 1005 "},"k":{"x_min":0,"x_max":232,"ha":232,"o":"m 232 -1 l 0 -1 l 0 230 l 36 262 q 9 279 9 276 q 44 323 9 288 q 11 384 31 345 q 28 381 15 384 q 45 377 41 377 q 70 438 70 424 q 62 462 70 452 q 96 487 69 462 l 96 515 l 137 515 q 121 494 137 510 q 139 470 139 477 q 168 459 148 459 q 147 451 155 459 q 180 437 161 437 q 163 415 180 431 q 168 404 163 412 q 172 394 172 397 q 170 387 172 390 q 155 376 155 387 l 169 361 q 197 369 176 369 q 206 356 198 366 q 213 343 213 345 q 209 340 212 340 q 195 344 205 340 l 181 331 q 206 300 191 320 q 223 279 220 280 q 194 284 201 279 q 190 273 190 280 q 232 240 208 250 l 232 -1 "},"<":{"x_min":-4,"x_max":421,"ha":417,"o":"m 421 0 l 78 0 l 78 465 q -4 474 30 462 l -4 771 l 63 771 q 69 694 63 716 l 90 694 q 99 771 103 728 l 166 771 q 172 694 166 716 l 193 694 q 202 771 204 728 l 267 771 q 275 694 264 725 l 296 694 q 303 771 303 717 l 370 771 l 370 240 l 421 240 l 421 0 "},"t":{"x_min":-8,"x_max":680.890625,"ha":672,"o":"m 680 1 l -8 1 l -8 238 q 25 245 18 238 l 25 715 q 158 862 76 763 q 157 772 158 852 q 157 683 157 713 q 166 631 160 640 q 279 807 190 734 q 283 846 275 833 q 304 846 283 846 q 322 918 314 867 q 336 990 332 976 q 365 847 344 938 q 390 842 372 848 q 390 809 390 842 q 505 631 473 761 q 514 862 514 695 q 647 715 565 812 l 647 245 q 680 238 654 238 l 680 1 "},"W":{"x_min":-4.171875,"x_max":640.28125,"ha":636,"o":"m 640 0 l -4 0 l -4 240 q 20 247 12 240 l 20 1075 l 613 1075 l 613 247 q 640 240 622 240 l 640 0 m 563 906 l 563 1031 l 447 1031 l 447 906 l 563 906 m 376 906 l 376 1031 l 259 1031 l 259 906 l 376 906 m 563 719 l 563 844 l 447 844 l 447 719 l 563 719 m 188 906 l 188 1031 l 72 1031 l 72 906 l 188 906 m 376 719 l 376 844 l 259 844 l 259 719 l 376 719 m 563 531 l 563 656 l 447 656 l 447 531 l 563 531 m 188 719 l 188 844 l 72 844 l 72 719 l 188 719 m 376 531 l 376 656 l 259 656 l 259 531 l 376 531 m 563 344 l 563 469 l 447 469 l 447 344 l 563 344 m 188 531 l 188 656 l 72 656 l 72 531 l 188 531 m 376 344 l 376 469 l 259 469 l 259 344 l 376 344 m 188 344 l 188 469 l 72 469 l 72 344 l 188 344 "},">":{"x_min":1,"x_max":425,"ha":426,"o":"m 425 474 q 344 465 390 462 l 344 0 l 1 0 l 1 240 l 51 240 l 51 771 l 118 771 q 126 694 118 717 l 147 694 q 154 771 158 725 l 221 771 q 227 694 216 728 l 248 694 q 257 771 257 716 l 322 771 q 330 694 319 728 l 351 694 q 360 771 360 716 l 425 771 l 425 474 "},"v":{"x_min":-3,"x_max":1110.890625,"ha":1107,"o":"m 1110 1 l -3 1 l -3 239 l 72 239 l 72 524 q 63 549 67 537 q 55 585 55 573 q 64 642 55 620 q 91 700 77 670 l 138 700 q 153 636 135 686 q 162 594 162 612 q 151 553 162 573 q 140 527 140 533 l 140 308 q 198 356 160 316 q 285 386 226 386 q 399 334 356 386 q 426 466 412 401 q 528 613 455 561 q 542 672 530 629 l 559 687 l 574 663 l 585 613 q 627 575 609 597 q 687 455 673 523 q 716 334 698 404 q 830 386 801 386 q 972 301 916 386 q 976 316 976 304 q 976 373 977 326 q 975 508 975 444 q 958 586 958 559 q 967 643 958 620 q 994 700 981 670 l 1041 700 q 1056 635 1038 684 q 1066 592 1066 612 q 1054 551 1066 571 q 1043 527 1043 531 l 1043 245 q 1110 239 1052 239 l 1110 1 "},"B":{"x_min":-5,"x_max":478,"ha":472,"o":"m 478 3 l -5 3 l -5 241 l 45 241 l 45 589 l 111 589 q 113 579 113 584 q 111 562 113 573 q 109 545 109 551 q 140 513 109 525 q 149 589 149 525 l 214 589 q 222 512 209 547 l 251 512 q 258 589 258 536 l 324 589 q 327 579 327 584 q 324 562 327 573 q 321 545 321 551 q 354 513 321 525 q 361 589 361 525 l 427 589 l 427 247 q 478 241 444 238 l 478 3 m 383 388 l 383 470 l 321 470 l 321 388 l 383 388 m 154 388 l 154 470 l 89 470 l 89 388 l 154 388 m 299 91 l 299 241 q 290 251 299 251 q 284 241 284 251 l 284 91 q 290 77 284 77 q 299 91 299 77 m 260 94 l 260 236 q 251 250 260 250 q 243 236 243 250 l 243 94 q 251 80 243 80 q 260 94 260 80 m 226 91 l 226 236 q 217 250 226 250 q 209 236 209 250 l 209 91 q 217 77 209 77 q 226 91 226 77 m 189 91 l 189 236 q 181 250 189 250 q 173 236 173 250 l 173 91 q 181 77 173 77 q 189 91 189 77 "},"s":{"x_min":-4,"x_max":232,"ha":228,"o":"m 232 3 l -4 3 l -4 240 q 33 247 24 240 l 33 450 l 204 450 l 204 247 q 232 240 212 240 l 232 3 "},"H":{"x_min":-5,"x_max":242,"ha":236,"o":"m 242 1 l -5 1 l -5 243 l 42 243 q 31 339 31 339 q 199 438 89 371 l 199 247 q 242 239 206 239 l 242 1 "},"?":{"x_min":0,"x_max":0,"ha":1378},"c":{"x_min":-4.171875,"x_max":529.171875,"ha":525,"o":"m 529 0 l -4 0 l -4 240 q 63 247 38 240 l 63 1031 l 476 1031 l 476 240 l 529 240 l 529 0 m 419 863 l 419 988 l 301 988 l 301 863 l 419 863 m 231 863 l 231 988 l 115 988 l 115 863 l 231 863 m 419 676 l 419 801 l 301 801 l 301 676 l 419 676 m 231 676 l 231 801 l 115 801 l 115 676 l 231 676 m 419 488 l 419 613 l 301 613 l 301 488 l 419 488 m 231 488 l 231 613 l 115 613 l 115 488 l 231 488 m 419 301 l 419 427 l 301 427 l 301 301 l 419 301 m 231 301 l 231 427 l 115 427 l 115 301 l 231 301 "},"I":{"x_min":-7,"x_max":292,"ha":285,"o":"m 292 -3 l -7 -3 l -7 238 q 20 281 19 242 q 20 347 20 313 q 159 429 68 373 q 219 317 190 373 q 292 238 260 242 l 292 -3 "},"G":{"x_min":-7,"x_max":307,"ha":300,"o":"m 307 -1 l -7 -1 l -7 241 q 19 281 18 241 q 20 340 19 311 q 41 380 24 356 q 69 419 69 419 l 220 419 q 277 350 233 405 q 279 275 276 292 q 307 241 283 242 l 307 -1 "},"`":{"x_min":0,"x_max":0,"ha":1378},"U":{"x_min":-5,"x_max":362,"ha":356,"o":"m 362 1 l -5 1 l -5 239 l 62 239 l 62 586 q 28 593 54 593 l 178 858 l 328 594 l 295 594 l 295 245 q 362 239 311 236 l 362 1 "},"F":{"x_min":-5,"x_max":1075.5625,"ha":1069,"o":"m 1075 0 l -5 0 l -5 240 l 28 240 l 28 853 l 93 853 q 95 843 95 848 q 93 826 95 837 q 92 809 92 815 q 124 777 92 788 q 131 853 131 788 l 195 853 q 198 843 198 848 q 196 826 198 837 q 195 809 195 815 q 227 777 195 788 q 234 853 234 788 l 303 853 l 303 436 l 336 436 q 345 512 347 467 l 410 512 q 412 501 412 508 q 409 485 412 495 q 407 469 407 474 q 439 436 407 447 q 446 512 446 447 l 513 512 q 521 436 508 469 l 550 436 q 557 512 557 459 l 622 512 q 625 501 625 508 q 622 485 625 495 q 620 469 620 474 q 653 436 620 447 q 660 512 660 447 l 725 512 q 733 436 722 469 l 767 436 l 767 853 l 835 853 q 838 843 838 848 q 835 826 838 837 q 833 809 833 815 q 865 777 833 788 q 872 853 872 788 l 938 853 q 940 843 940 848 q 938 826 940 837 q 935 809 935 815 q 968 777 935 788 q 975 853 975 788 l 1040 853 l 1040 246 q 1075 240 1049 240 l 1075 0 "},"r":{"x_min":-5,"x_max":374,"ha":368,"o":"m 374 -3 l -5 -3 l -5 238 q 22 247 13 238 l 22 498 l 80 498 q 119 575 90 522 l 248 575 q 287 498 259 548 l 346 498 l 346 247 q 374 238 354 238 l 374 -3 "},"x":{"x_min":-5,"x_max":564,"ha":558,"o":"m 564 0 l -5 0 l -5 233 q 87 242 45 228 l 82 469 q 14 472 46 474 l 110 633 q 209 487 174 550 q 209 641 209 641 q 178 647 193 641 q 274 807 211 704 q 376 654 303 755 q 438 745 397 686 q 540 584 465 709 l 503 581 l 503 297 q 433 288 461 300 l 433 238 q 564 238 503 229 l 564 0 m 371 641 l 342 643 l 342 602 l 371 641 m 371 439 l 371 581 l 342 581 l 342 439 l 371 439 m 209 439 l 209 469 l 177 469 l 177 439 l 209 439 "},"V":{"x_min":-7,"x_max":623.546875,"ha":617,"o":"m 623 3 l -7 3 l -7 239 q 59 247 29 236 l 59 371 q 8 379 42 379 q 123 592 44 451 q 494 582 131 582 q 608 371 529 526 q 556 362 569 373 l 556 247 q 623 239 572 239 l 623 3 "},"h":{"x_min":-4.171875,"x_max":820.828125,"ha":817,"o":"m 820 0 l -4 0 l -4 238 q 47 247 31 238 l 47 912 l 87 912 l 87 868 q 108 862 94 862 q 115 904 118 869 l 156 904 l 156 868 q 183 868 169 855 l 183 912 l 227 912 q 227 700 222 802 l 601 700 l 601 912 l 641 912 l 641 868 q 662 862 648 862 q 669 904 670 869 l 709 904 l 709 868 q 737 868 723 855 l 737 912 l 777 912 l 777 245 q 820 238 786 238 l 820 0 m 698 744 l 698 808 q 687 820 698 820 q 675 808 675 820 l 675 744 q 687 731 675 731 q 698 744 698 731 m 684 505 l 684 622 l 652 622 l 652 505 l 684 505 m 581 505 l 581 622 l 550 622 l 550 505 l 581 505 m 479 505 l 479 622 l 447 622 l 447 505 l 479 505 m 377 505 l 377 622 l 345 622 l 345 505 l 377 505 m 147 748 l 147 808 q 134 820 147 820 l 130 820 q 118 808 118 820 l 118 748 q 130 736 118 736 l 134 736 q 147 748 147 736 m 275 505 l 275 622 l 243 622 l 243 505 l 275 505 m 172 505 l 172 622 l 141 622 l 141 505 l 172 505 "},"@":{"x_min":0,"x_max":0,"ha":1378},"f":{"x_min":-3,"x_max":547,"ha":544,"o":"m 547 -3 l -3 -3 l -3 240 l 40 240 q 101 351 58 263 q 134 256 109 320 q 140 426 140 291 q 215 469 160 434 q 223 401 212 434 l 344 401 q 349 359 338 380 q 362 376 355 368 q 384 385 370 385 l 513 385 l 513 246 q 547 240 522 240 l 547 -3 "},"i":{"x_min":-4,"x_max":445,"ha":440,"o":"m 445 0 l -4 0 l -4 238 q 46 245 33 235 l 46 342 q 208 348 159 342 l 208 451 l 308 451 q 316 375 305 409 l 393 375 q 401 238 393 279 l 445 238 l 445 0 "},"A":{"x_min":-4,"x_max":616.84375,"ha":613,"o":"m 616 0 l -4 0 l -4 240 l 616 240 l 616 0 "},"O":{"x_min":-4,"x_max":921,"ha":917,"o":"m 921 -1 l -4 -1 l -4 241 q 19 247 12 241 l 19 478 l 141 598 l 597 598 q 680 480 621 561 q 684 531 686 486 q 677 802 680 668 l 727 802 q 733 718 722 755 l 835 718 q 835 836 841 767 l 879 836 l 879 247 q 921 241 887 241 l 921 -1 "},"n":{"x_min":-5,"x_max":410,"ha":404,"o":"m 317 491 l 325 508 l 317 491 m 222 501 l 222 466 l 222 501 m 203 404 l 203 409 l 203 404 m 410 -7 l -5 -7 l -5 241 q 164 241 86 231 l 164 283 q 115 290 149 291 q 53 376 93 318 q 96 404 70 381 q 28 437 75 408 l 28 463 q 36 508 28 473 q 44 568 44 543 l 64 587 l 101 587 l 125 562 q 167 622 133 581 l 196 622 l 219 595 q 235 622 222 605 l 264 622 q 287 562 272 599 l 303 579 l 349 579 l 368 559 q 351 508 371 548 q 385 483 364 500 l 385 445 q 335 405 364 433 q 351 343 354 372 q 297 273 325 318 l 268 273 l 254 290 l 249 245 q 410 237 314 232 l 410 -7 "},"]":{"x_min":0,"x_max":0,"ha":1378},"m":{"x_min":-4,"x_max":525.171875,"ha":519,"o":"m 525 0 l -4 0 l -4 238 q 39 248 11 237 q 86 266 62 256 q 25 298 61 277 q 86 306 72 295 q 71 322 80 312 q 55 337 61 333 l 96 379 q 68 373 87 387 q 83 412 66 394 q 116 440 100 426 q 87 445 111 445 q 100 459 87 451 q 127 483 119 475 q 87 498 127 498 q 119 523 87 501 q 151 568 151 545 q 150 579 151 573 q 122 569 137 569 q 168 634 132 598 l 151 650 q 129 640 137 640 q 136 666 127 652 q 162 680 144 680 q 179 679 177 680 q 183 670 183 670 l 198 687 q 168 702 198 702 q 232 864 184 752 q 264 827 244 861 q 300 794 284 794 q 311 797 305 794 q 290 787 300 797 q 330 770 307 770 q 311 744 330 763 q 330 730 311 730 q 318 716 330 726 q 300 695 305 706 q 336 681 311 686 q 372 666 361 677 q 357 659 372 662 q 332 644 341 655 q 382 580 352 618 l 340 580 q 412 525 359 543 q 371 498 412 519 q 383 481 369 490 q 411 475 397 473 q 401 462 411 468 q 382 450 386 454 q 413 425 393 440 q 443 401 433 411 q 430 395 443 397 q 402 387 412 393 q 423 374 408 383 q 443 361 437 365 q 412 318 448 334 q 473 294 439 311 q 412 276 457 298 q 525 238 448 262 l 525 0 "},"l":{"x_min":-7.046875,"x_max":324,"ha":317,"o":"m 324 -3 l -7 -3 l -7 238 q 34 284 -8 262 q 29 301 34 292 q 29 311 24 306 q 44 317 36 311 q 52 331 52 324 q 35 340 48 334 q 18 351 22 345 q 77 391 54 369 q 51 408 51 405 q 86 452 51 418 l 72 465 q 52 458 61 458 q 81 490 52 490 q 94 490 94 490 q 98 481 98 481 q 111 501 111 495 q 91 513 106 508 q 76 519 76 518 q 91 523 77 520 q 113 551 102 537 q 138 643 120 559 q 158 643 143 643 q 177 643 173 643 q 162 622 177 638 q 179 598 179 605 q 209 588 188 588 q 187 580 197 588 q 220 566 202 566 q 205 544 220 561 q 211 530 205 541 q 211 516 216 520 q 195 505 195 516 l 209 490 q 237 498 217 498 q 246 485 238 495 q 254 472 254 475 q 249 469 254 469 q 236 473 245 469 l 222 461 q 247 431 231 451 q 263 408 262 411 q 236 413 241 408 q 230 402 230 411 q 260 375 238 394 q 290 348 281 356 q 256 333 263 351 q 315 311 265 323 q 265 298 299 308 l 279 286 q 297 289 283 286 q 315 293 311 293 q 298 273 315 288 q 315 261 307 268 q 324 240 324 254 l 324 -3 "},"p":{"x_min":-5,"x_max":682.515625,"ha":676,"o":"m 682 -6 l -5 -6 l -5 238 q 38 246 21 238 l 38 769 q 62 652 42 737 q 81 534 81 581 q 81 493 81 513 q 103 486 87 486 l 103 391 q 114 384 105 384 q 149 587 139 472 l 149 913 q 174 800 167 880 q 186 666 182 684 q 231 840 231 738 q 224 931 231 873 q 218 1011 218 990 q 270 862 236 962 q 304 981 283 901 q 339 1101 325 1062 q 407 862 360 1020 l 420 877 q 458 1016 420 898 q 452 938 458 991 q 446 854 446 884 q 492 666 446 759 q 501 772 497 686 q 528 905 504 850 l 528 584 q 556 391 538 522 q 574 391 564 383 l 574 486 q 599 493 592 486 q 596 534 596 515 q 613 651 596 584 q 639 769 635 734 l 639 245 q 682 239 649 237 l 682 -6 m 383 530 l 383 759 l 293 759 l 293 530 q 308 661 308 577 l 332 684 q 368 661 358 684 q 366 624 368 651 q 364 584 364 597 q 383 530 364 540 m 476 252 l 476 538 l 436 538 l 436 481 q 470 476 464 481 q 453 417 453 453 q 458 368 453 402 q 463 317 463 334 q 446 252 463 279 l 476 252 m 571 259 l 571 325 l 531 325 l 531 259 l 571 259 m 239 480 l 239 537 l 199 537 l 199 252 l 231 252 q 214 317 214 278 q 219 367 214 333 q 224 416 224 401 q 206 475 224 451 q 239 480 213 480 m 149 259 l 149 325 l 103 325 l 103 259 l 149 259 "},"R":{"x_min":-8,"x_max":465.609375,"ha":457,"o":"m 465 -4 l -8 -4 l -8 242 l 50 242 l 50 838 l 416 838 l 416 248 q 465 242 431 242 l 465 -4 m 356 669 l 356 778 l 111 778 l 111 669 l 356 669 "},"o":{"x_min":-5,"x_max":538.0625,"ha":532,"o":"m 538 -3 l -5 -3 l -5 240 l 29 240 q 95 429 59 312 q 129 555 129 538 q 79 785 129 558 l 453 785 q 403 555 403 558 q 435 436 403 544 q 487 255 475 303 q 538 240 501 240 l 538 -3 "}}}
